<?xml version="1.0" encoding="UTF-8" standalone="no"?>
<svg
   xmlns:dc="http://purl.org/dc/elements/1.1/"
   xmlns:cc="http://creativecommons.org/ns#"
   xmlns:rdf="http://www.w3.org/1999/02/22-rdf-syntax-ns#"
   xmlns:svg="http://www.w3.org/2000/svg"
   xmlns="http://www.w3.org/2000/svg"
   id="svg8"
   version="1.1"
   viewBox="0 0 38.805554 38.805556"
   height="110pt"
   width="110pt">
  <defs
     id="defs2" />
  <metadata
     id="metadata5">
    <rdf:RDF>
      <cc:Work
         rdf:about="">
        <dc:format>image/svg+xml</dc:format>
        <dc:type
           rdf:resource="http://purl.org/dc/dcmitype/StillImage" />
        <dc:title></dc:title>
      </cc:Work>
    </rdf:RDF>
  </metadata>
  <g
     transform="translate(-79.494017,-99.808968)"
     id="layer1">
    <path
       style="fill:#97b06e;stroke-width:0.5334816"
       d="m 94.810568,137.26931 c -4.090854,-1.24439 -8.700047,-3.99876 -10.564436,-8.22603 -3.06922,-6.95907 -0.13408,-16.123 6.371575,-19.89299 3.242465,-1.87899 3.050078,-2.81935 -1.020707,-4.98905 -4.816749,-2.5673 -4.047177,-4.635058 0.986613,-2.65092 2.057311,0.81092 3.386034,0.99168 5.47287,0.74452 2.466351,-0.2921 2.736172,-0.22483 2.567885,0.64021 -0.112614,0.57887 -0.977949,1.19977 -2.157224,1.54786 -1.670937,0.49322 -1.872933,0.70818 -1.333704,1.41933 0.458891,0.6052 1.601734,0.84571 4.112757,0.86554 4.693403,0.0371 8.272193,1.62865 11.618793,5.16718 7.45216,13.48174 3.64484,21.00876 -6.43576,24.79462 -2.73863,1.0406 -7.041326,1.36372 -9.618662,0.57973 z"
       id="path832" />
    <path
       style="fill:#759656;stroke-width:0.5334816"
       d="m 94.650801,137.33562 c -5.00567,-1.64716 -9.323124,-4.68119 -10.801817,-9.02092 -1.160364,-3.40548 -1.063371,-8.04155 0.241187,-11.52829 1.141477,-3.05087 5.562219,-7.84956 7.921018,-8.59821 0.78345,-0.24866 1.103056,-0.66514 0.905498,-1.17996 -0.167927,-0.43761 -0.305322,-0.96787 -0.305322,-1.17834 0,-0.21047 -0.780217,-0.66861 -1.733816,-1.01809 -0.953598,-0.34947 -2.454015,-1.22001 -3.334259,-1.93454 -1.243692,-1.00954 -1.458891,-1.44361 -0.965414,-1.9473 0.497315,-0.50761 1.280632,-0.38615 3.612,0.56009 2.220535,0.90125 3.524619,1.12069 5.132259,0.86362 1.18542,-0.18956 2.39246,-0.19808 2.68232,-0.0189 0.82295,0.50861 -0.55066,1.83117 -1.90187,1.83117 -1.60952,0 -1.94389,0.46291 -1.19757,1.65796 0.50617,0.8105 1.26979,1.00944 3.87468,1.00944 1.784345,0 4.354015,0.37813 5.710375,0.84029 3.23922,1.10372 7.02362,4.49256 8.81803,7.89636 1.26439,2.39842 1.441,3.33766 1.44182,7.66794 0.1551,7.39163 -6.21238,11.35111 -10.19649,13.7017 -4.626801,1.15369 -6.418299,0.9724 -9.902629,0.39598 z m 9.697159,-6.76236 c 0.73354,-0.41933 2.0539,-0.77693 2.93415,-0.79466 1.82104,-0.0367 6.40989,-3.93059 5.79828,-4.92018 -0.23197,-0.37535 -0.11231,-0.431 0.33384,-0.15526 1.34245,0.82967 0.31727,-6.2115 -1.35053,-9.2758 -1.59974,-2.93924 -4.67142,-5.68906 -5.66738,-5.07352 -0.34846,0.21536 -0.46843,0.14516 -0.27814,-0.16273 0.46165,-0.74697 -3.17912,-2.22494 -5.77134,-2.34288 -3.670795,-0.167 -4.450865,0.0148 -4.801325,1.11902 -0.36009,1.13453 -2.693884,1.52102 -3.033436,0.50237 -0.320153,-0.96046 -4.669801,2.61062 -6.288286,5.1627 -1.848436,2.91469 -2.609178,6.49525 -1.539326,7.24512 0.563294,0.39481 0.576234,0.5684 0.05804,0.77866 -0.366768,0.14882 -0.666852,0.50482 -0.666852,0.7911 0,0.28628 0.250583,0.36564 0.556851,0.17635 0.837763,-0.51776 2.110557,0.78281 2.110557,2.15662 0,0.66621 -0.394056,1.36252 -0.87568,1.54733 -0.710666,0.27271 -0.756049,0.19189 -0.240835,-0.42891 0.411558,-0.4959 0.446293,-0.88147 0.09876,-1.09626 -0.294848,-0.18222 -0.399809,-0.68645 -0.233247,-1.12051 0.214608,-0.55926 0.05239,-0.69308 -0.556781,-0.45932 -0.90337,0.34666 -1.207669,1.81616 -0.376084,1.81616 0.265946,0 0.348065,0.51805 0.182488,1.15122 -0.248182,0.94905 -0.113547,1.10218 0.766667,0.872 0.695417,-0.18185 1.294423,0.0838 1.717886,0.76187 0.516874,0.82765 1.080859,0.99134 2.750908,0.79843 1.155406,-0.13346 2.100738,-0.0688 2.100738,0.14367 0,1.45969 9.980197,2.11642 12.270077,0.80741 z"
       id="path830" />
    <path
       style="fill:#363c2d;stroke-width:0.5334816"
       d="m 93.8941,137.61652 c -3.298787,-1.118 -6.314334,-3.35922 -8.242353,-6.39939 -2.743129,-4.32546 -3.371249,-9.37849 -1.75532,-14.12098 0.989515,-2.90406 4.620204,-7.16354 7.36688,-8.64272 1.509347,-0.81284 1.84543,-1.26069 1.584758,-2.11181 -0.404232,-1.31984 0.03279,-0.96851 -3.265805,-2.62544 -1.964254,-0.98667 -2.800779,-1.72286 -2.800779,-2.46485 0,-1.18756 0.425244,-1.311384 1.600445,-0.466 0.455103,0.61879 1.397992,0.64976 2.133926,0.86981 0.733537,0.22297 2.714088,0.39037 4.401223,0.372 2.056605,-0.0224 3.067519,0.17856 3.067519,0.60978 0,0.72605 -1.186129,1.29081 -2.711039,1.29081 -1.186976,0 -1.295033,0.51817 -0.35648,1.70944 0.466448,0.59204 1.869276,0.91799 4.667964,1.08459 8.875411,0.52835 15.158071,6.86781 15.190761,15.3281 0.007,1.91613 -0.17595,4.16312 -0.40745,4.99332 l -0.42091,1.50944 c -1.24077,3.79737 -6.10053,7.89754 -9.59836,8.92738 -2.4128,0.92507 -7.239715,0.90373 -10.45498,0.13652 z m 10.50366,-0.94648 c 6.312,-2.73925 9.28687,-7.20378 9.49825,-12.96062 0.25825,-4.57043 -0.82982,-8.12839 -3.40628,-11.13841 -4.04012,-4.71997 -13.826798,-7.24159 -14.906196,-3.84071 -0.186036,0.58615 -0.794669,1.06572 -1.352518,1.06572 -0.70875,0 -0.916029,-0.25601 -0.688128,-0.84991 0.273443,-0.71258 -0.0094,-0.67703 -1.750558,0.22 -7.012895,3.613 -9.971796,12.77371 -6.445408,19.95488 1.70875,3.47972 4.834947,6.41599 8.041916,7.55335 2.994368,1.06196 8.349312,1.05987 11.008922,-0.004 z"
       id="path828" />
  </g>
</svg>
